<svg xmlns="http://www.w3.org/2000/svg" width="350" height="182.367" viewBox="0 0 350 182.367">
  <g id="Pattern" transform="translate(-516.501 -251.518)" opacity="0.05">
    <path id="Path_10" data-name="Path 10" d="M66.472,19.3c2.447,13.893,11.55,86.069-62.9,87.56a2.709,2.709,0,0,1-2.709-2.419C-.9,90.179-6.285,18.519,63.782,17A2.7,2.7,0,0,1,66.472,19.3Z" transform="translate(587.293 327.028)" fill="#fafafa"/>
    <path id="Path_27" data-name="Path 27" d="M66.472,19.3c2.447,13.893,11.55,86.069-62.9,87.56a2.709,2.709,0,0,1-2.709-2.419C-.9,90.179-6.285,18.519,63.782,17A2.7,2.7,0,0,1,66.472,19.3Z" transform="translate(728.884 327.028)" fill="#fafafa"/>
    <path id="Path_25" data-name="Path 25" d="M66.468,2.3c2.447,13.893,11.55,86.069-62.9,87.56A2.709,2.709,0,0,1,.864,87.438C-.908,73.179-6.289,1.519,63.778,0A2.7,2.7,0,0,1,66.468,2.3Z" transform="translate(654.113 341.374) rotate(180)" fill="#fafafa"/>
    <path id="Path_29" data-name="Path 29" d="M66.468,2.3c2.447,13.893,11.55,86.069-62.9,87.56A2.709,2.709,0,0,1,.864,87.438C-.908,73.179-6.289,1.519,63.778,0A2.7,2.7,0,0,1,66.468,2.3Z" transform="translate(795.704 341.374) rotate(180)" fill="#fafafa"/>
    <path id="Path_11" data-name="Path 11" d="M1.678,19.3c-2.447,13.893-11.55,86.069,62.9,87.56a2.709,2.709,0,0,0,2.709-2.419C69.055,90.179,74.436,18.519,4.369,17A2.7,2.7,0,0,0,1.678,19.3Z" transform="translate(516.497 327.028)" fill="#fafafa"/>
    <path id="Path_28" data-name="Path 28" d="M1.678,19.3c-2.447,13.893-11.55,86.069,62.9,87.56a2.709,2.709,0,0,0,2.709-2.419C69.055,90.179,74.436,18.519,4.369,17A2.7,2.7,0,0,0,1.678,19.3Z" transform="translate(658.089 327.028)" fill="#fafafa"/>
    <path id="Path_26" data-name="Path 26" d="M1.675,2.3C-.772,16.19-9.875,88.366,64.57,89.857a2.709,2.709,0,0,0,2.709-2.419C69.051,73.179,74.432,1.519,4.365,0A2.7,2.7,0,0,0,1.675,2.3Z" transform="translate(724.909 341.375) rotate(180)" fill="#fafafa"/>
    <path id="Path_30" data-name="Path 30" d="M1.675,2.3C-.772,16.19-9.875,88.366,64.57,89.857a2.709,2.709,0,0,0,2.709-2.419C69.051,73.179,74.432,1.519,4.365,0A2.7,2.7,0,0,0,1.675,2.3Z" transform="translate(866.5 341.375) rotate(180)" fill="#fafafa"/>
  </g>
</svg>
