<svg xmlns="http://www.w3.org/2000/svg" width="40.945" height="48.091" viewBox="0 0 40.945 48.091">
  <g id="Logo" transform="translate(-0.004 0.033)">
    <g id="Vrstva_1" data-name="Vrstva 1" transform="translate(0.004 -0.033)">
      <path id="Path_1" data-name="Path 1" d="M10.616.45C9.493,3.843,4.561,21.6,23.163,24.707a.686.686,0,0,0,.769-.511C24.9,20.7,28.882,2.934,11.376-.025a.689.689,0,0,0-.76.475Z" transform="translate(-7.005 0.033)" fill="#40fc79"/>
      <path id="Path_2" data-name="Path 2" d="M.428,17.582C-.192,21.1-2.5,39.383,16.359,39.761a.686.686,0,0,0,.686-.613C17.494,35.536,18.857,17.385,1.109,17A.684.684,0,0,0,.428,17.582Z" transform="translate(-0.004 -12.955)" fill="#fff"/>
      <path id="Path_3" data-name="Path 3" d="M105.463,51.056a.886.886,0,0,1,.772.95A14.848,14.848,0,0,1,96.119,65.142C90.444,67.151,89.9,70.25,85.745,81.988c-.351,1-.164-24.667,3.837-28.175C92.562,51.194,98.04,50.094,105.463,51.056Z" transform="translate(-65.293 -38.662)" fill="#40fc79"/>
      <path id="Path_4" data-name="Path 4" d="M97.759,47.3a.888.888,0,0,1,.9.824,14.847,14.847,0,0,1-8.1,14.466c-5.324,2.809-7.079,8.622-9.487,20.842a.888.888,0,0,1-1.76-.142c-.321-10-.313-26.911,3.134-30.962C85.014,49.306,90.277,47.425,97.759,47.3Z" transform="translate(-60.376 -36.06)" fill="#fff"/>
    </g>
  </g>
</svg>
