<svg xmlns="http://www.w3.org/2000/svg" width="64" height="64" viewBox="0 0 64 64">
  <g id="Group_3" data-name="Group 3" transform="translate(-655 -667)">
    <rect id="Rectangle_47" data-name="Rectangle 47" width="64" height="64" rx="8" transform="translate(655 667)" fill="#40fc79"/>
    <path id="Path_87" data-name="Path 87" d="M8.88,17.307C9.207,19.162,10.423,28.8.481,29a.362.362,0,0,1-.362-.323C-.118,26.773-.836,17.2,8.521,17A.361.361,0,0,1,8.88,17.307Z" transform="translate(687.173 658)" fill="#191a17"/>
    <path id="Path_85" data-name="Path 85" d="M8.88,17.307C9.207,19.162,10.423,28.8.481,29a.362.362,0,0,1-.362-.323C-.118,26.773-.836,17.2,8.521,17A.361.361,0,0,1,8.88,17.307Z" transform="translate(687.173 682)" fill="#191a17"/>
    <path id="Path_86" data-name="Path 86" d="M.227,17.307C-.1,19.162-1.315,28.8,8.627,29a.362.362,0,0,0,.362-.323C9.225,26.773,9.944,17.2.587,17A.361.361,0,0,0,.227,17.307Z" transform="translate(677.719 670)" fill="#191a17"/>
    <path id="Path_83" data-name="Path 83" d="M.227,17.307C-.1,19.162-1.315,28.8,8.627,29a.362.362,0,0,0,.362-.323C9.225,26.773,9.944,17.2.587,17A.361.361,0,0,0,.227,17.307Z" transform="translate(677.719 694)" fill="#191a17"/>
  </g>
</svg>
