<svg xmlns="http://www.w3.org/2000/svg" width="24" height="24" viewBox="0 0 24 24">
  <g id="Group_8" data-name="Group 8" transform="translate(-585 -70)">
    <path id="Path_95" data-name="Path 95" d="M10,0A10,10,0,1,1,0,10,10,10,0,0,1,10,0Z" transform="translate(587 72)" fill="#40fc79"/>
    <path id="Path_90" data-name="Path 90" d="M0,0H24V24H0Z" transform="translate(585 70)" fill="none"/>
    <path id="Path_91" data-name="Path 91" d="M15.88,8.29,10,14.17,8.12,12.29A1,1,0,0,0,6.71,13.7L9.3,16.29a1,1,0,0,0,1.41,0L17.3,9.7a1,1,0,0,0,0-1.41,1.008,1.008,0,0,0-1.42,0Z" transform="translate(585 70)" fill="#191a17"/>
  </g>
</svg>
